<?xml version="1.0" standalone="no"?><!DOCTYPE svg PUBLIC "-//W3C//DTD SVG 1.1//EN" "http://www.w3.org/Graphics/SVG/1.1/DTD/svg11.dtd"><svg t="1731058413304" class="icon" viewBox="0 0 1024 1024" version="1.1" xmlns="http://www.w3.org/2000/svg" p-id="4289" data-darkreader-inline-fill="" width="32" height="32" xmlns:xlink="http://www.w3.org/1999/xlink"><path d="M896 0H128a128 128 0 0 0-128 128v768a128 128 0 0 0 128 128h768a128 128 0 0 0 128-128V128a128 128 0 0 0-128-128zM589.44 720.64a326.4 326.4 0 0 1-163.84 41.6 224 224 0 0 1-168.96-64A243.2 243.2 0 0 1 192 518.4a251.52 251.52 0 0 1 71.04-184.32A245.12 245.12 0 0 1 448 261.76a320 320 0 0 1 128 24.96v67.84A256 256 0 0 0 439.04 320a171.52 171.52 0 0 0-128 53.76A197.12 197.12 0 0 0 256 512a197.76 197.76 0 0 0 47.36 141.44 164.48 164.48 0 0 0 128 50.56 196.48 196.48 0 0 0 94.08-21.12V554.24H421.76V499.2h167.68zM832 576a220.8 220.8 0 0 1-37.12 135.68 122.24 122.24 0 0 1-101.76 48 120.32 120.32 0 0 1-48.64-8.96v-60.8a78.08 78.08 0 0 0 48.64 14.08c50.56 0 76.16-42.88 76.16-128V270.08h64z" fill="#f47500" p-id="4290" data-darkreader-inline-fill="" style="--darkreader-inline-fill: #c35e00;"></path></svg>